<svg id="Слой_1" data-name="Слой 1" xmlns="http://www.w3.org/2000/svg" viewBox="0 0 1080 1080"><defs><style>.cls-1{font-size:67.31px;font-family:Futura-Bold, Futura;font-weight:700;}.cls-1,.cls-2{fill:#568ec5;}.cls-3{fill:#c7c6c6;}</style></defs><title>logo ver 2</title><text class="cls-1" transform="translate(416.12 436.61)">T<tspan x="40.99" y="0">R</tspan><tspan x="93.29" y="0">U</tspan><tspan x="153.18" y="0">H</tspan><tspan x="214.31" y="0">U</tspan><tspan x="274.22" y="0">I</tspan><tspan x="303.08" y="0">S</tspan></text><path class="cls-2" d="M919.08,386H789.33v50.61H919.08c35.71,0,57.89,23.18,57.89,60.49s-22.18,60.49-57.89,60.49H260.88c-35.71,0-57.89-23.18-57.89-60.49s22.18-60.49,57.89-60.49H385.42V386H260.88c-63.88,0-108.5,45.69-108.5,111.1S197,608.21,260.88,608.21h658.2c63.88,0,108.5-45.69,108.5-111.11S983,386,919.08,386Z"/><path class="cls-3" d="M819.12,471.79H207.06a80.73,80.73,0,0,0,0,50.62H819.12c35.71,0,57.89,23.18,57.89,60.49s-22.18,60.49-57.89,60.49H160.93c-35.71,0-57.9-23.18-57.9-60.49,0-35.14,19.68-57.73,51.8-60.24a134.64,134.64,0,0,1-.08-50.72c-60.57,2.86-102.33,47.67-102.33,111C52.42,648.31,97,694,160.93,694H819.12c63.88,0,108.5-45.69,108.5-111.1S883,471.79,819.12,471.79Z"/></svg>