<svg id="Слой_1" data-name="Слой 1" xmlns="http://www.w3.org/2000/svg" viewBox="0 0 787.26 251.1"><defs><style>.cls-1{fill:#568ac1;}.cls-2{fill:#c3c2c2;}</style></defs><title>logotype 2 ver</title><path class="cls-1" d="M314.4,10.16v32H303.75V10.16H295v-9h28.14v9Z"/><path class="cls-1" d="M366,42.11H352.78L342.62,26.35V42.11H332v-41h16.58a16.23,16.23,0,0,1,6,1,11.24,11.24,0,0,1,6.71,6.76,14,14,0,0,1,.85,4.89,12,12,0,0,1-2.26,7.58,11.34,11.34,0,0,1-6.66,3.94ZM342.62,19.45h2a7.77,7.77,0,0,0,4.84-1.3,4.47,4.47,0,0,0,1.68-3.75,4.47,4.47,0,0,0-1.68-3.75,7.77,7.77,0,0,0-4.84-1.3h-2Z"/><path class="cls-1" d="M384.85,1.14V23.42c0,1.19,0,2.42.14,3.67a9.81,9.81,0,0,0,.82,3.39A5.63,5.63,0,0,0,388,33a7.63,7.63,0,0,0,4.13.95,7.5,7.5,0,0,0,4.11-.95,6,6,0,0,0,2.14-2.48,9.6,9.6,0,0,0,.84-3.39c.09-1.25.14-2.48.14-3.67V1.14H409.9V24.89q0,9.56-4.37,14t-13.45,4.4q-9.07,0-13.47-4.4t-4.4-14V1.14Z"/><path class="cls-1" d="M433.2,17h15.38V1.14h10.65v41H448.58V25.21H433.2v16.9H422.55v-41H433.2Z"/><path class="cls-1" d="M482.55,1.14V23.42c0,1.19.05,2.42.14,3.67a10,10,0,0,0,.81,3.39A5.65,5.65,0,0,0,485.65,33a7.6,7.6,0,0,0,4.13.95,7.47,7.47,0,0,0,4.1-.95A5.92,5.92,0,0,0,496,30.48a9.6,9.6,0,0,0,.84-3.39c.09-1.25.14-2.48.14-3.67V1.14H507.6V24.89q0,9.56-4.37,14t-13.45,4.4q-9.07,0-13.48-4.4t-4.4-14V1.14Z"/><path class="cls-1" d="M530.91,1.14v41H520.26v-41Z"/><path class="cls-1" d="M566.07,11.63a13.13,13.13,0,0,0-3.48-2.09,9.09,9.09,0,0,0-3.37-.68,5.46,5.46,0,0,0-3.36,1,3.07,3.07,0,0,0-1.31,2.56,2.56,2.56,0,0,0,.65,1.79,5.69,5.69,0,0,0,1.72,1.22,13.55,13.55,0,0,0,2.39.9c.88.26,1.76.53,2.63.82q5.22,1.74,7.64,4.64A11.48,11.48,0,0,1,572,29.34a14.71,14.71,0,0,1-1.06,5.71,11.77,11.77,0,0,1-3.09,4.37,14.25,14.25,0,0,1-5,2.83,20.85,20.85,0,0,1-6.71,1,24.68,24.68,0,0,1-14.4-4.62l4.56-8.58A18.7,18.7,0,0,0,551,33.2a11.35,11.35,0,0,0,4.62,1A5.53,5.53,0,0,0,559.52,33a3.66,3.66,0,0,0,1.28-2.72,3.6,3.6,0,0,0-.33-1.6,3.39,3.39,0,0,0-1.08-1.25,8.51,8.51,0,0,0-2-1.06c-.81-.33-1.8-.69-3-1.09q-2.06-.64-4.05-1.44a12.58,12.58,0,0,1-3.53-2.09,9.87,9.87,0,0,1-2.5-3.29,11.68,11.68,0,0,1-1-5,14.55,14.55,0,0,1,1-5.52,12.31,12.31,0,0,1,2.82-4.24A12.71,12.71,0,0,1,551.7,1a16.88,16.88,0,0,1,5.89-1A25.88,25.88,0,0,1,564,.84a28.32,28.32,0,0,1,6.36,2.47Z"/><path class="cls-1" d="M699.67,1.25H594.92V42.11H699.67c28.82,0,46.73,18.71,46.73,48.84s-17.91,48.83-46.73,48.83H168.29c-28.83,0-46.73-18.71-46.73-48.83s17.9-48.84,46.73-48.84H268.83V1.25H168.29C116.72,1.25,80.7,38.14,80.7,91s36,89.69,87.59,89.69H699.67c51.57,0,87.59-36.88,87.59-89.69S751.24,1.25,699.67,1.25Z"/><path class="cls-2" d="M166.88,209.05H87.6c-28.83,0-46.74-18.71-46.74-48.84,0-28.36,15.89-46.6,41.81-48.63a109,109,0,0,1-.06-40.94C33.71,72.94,0,109.12,0,160.21c0,52.81,36,89.7,87.6,89.7h79.28Z"/><path class="cls-2" d="M619,70.52H124.84A60.55,60.55,0,0,0,121.56,91a60.59,60.59,0,0,0,3.28,20.43H619c28.83,0,46.73,18.71,46.73,48.83S647.8,209.05,619,209.05h-80.9v40.86H619c51.57,0,87.59-36.89,87.59-89.7S670.54,70.52,619,70.52Z"/><path class="cls-2" d="M222.77,222.63a11.34,11.34,0,0,0-9.13-4.51,11.1,11.1,0,0,0-4.42.87,10.58,10.58,0,0,0-5.82,5.92,12.39,12.39,0,0,0,0,9,10.88,10.88,0,0,0,10.19,6.85,12.3,12.3,0,0,0,9.18-4.35V249l-1.08.39a32.19,32.19,0,0,1-4.57,1.27,22.25,22.25,0,0,1-4.18.41,21.34,21.34,0,0,1-15-6.11,22.48,22.48,0,0,1-4.76-6.9,21.17,21.17,0,0,1-1.79-8.73,20.86,20.86,0,0,1,1.77-8.66A21.62,21.62,0,0,1,213,207.8a22.71,22.71,0,0,1,4.81.51,29.16,29.16,0,0,1,5,1.61Z"/><path class="cls-2" d="M259.65,242.79H244.44L242,249.91H230.64l15.59-41h11.63l15.59,41H262.1Zm-2.82-8.1L252,221.05l-4.78,13.64Z"/><path class="cls-2" d="M282.22,208.94H298a18.63,18.63,0,0,1,7.85,1.68,21.53,21.53,0,0,1,6.41,4.49,20.61,20.61,0,0,1,4.32,6.52,19.8,19.8,0,0,1,1.58,7.79,20,20,0,0,1-1.55,7.75,20.86,20.86,0,0,1-10.71,11.05,18.59,18.59,0,0,1-7.9,1.69H282.22Zm10.65,31.95h2.44a13.24,13.24,0,0,0,4.95-.87,10.66,10.66,0,0,0,3.67-2.39,10.42,10.42,0,0,0,2.28-3.62,13,13,0,0,0,.79-4.59,12.44,12.44,0,0,0-.82-4.56,10.25,10.25,0,0,0-6-6,13.08,13.08,0,0,0-4.9-.87h-2.44Z"/><path class="cls-2" d="M352.38,242.79H337.17l-2.45,7.12H323.36l15.6-41h11.63l15.59,41H354.83Zm-2.82-8.1-4.79-13.64L340,234.69Z"/><path class="cls-2" d="M397.41,219.42a13.4,13.4,0,0,0-3.48-2.09,9.29,9.29,0,0,0-3.37-.68,5.47,5.47,0,0,0-3.36,1,3.06,3.06,0,0,0-1.31,2.56,2.56,2.56,0,0,0,.65,1.79,5.69,5.69,0,0,0,1.72,1.22,14.38,14.38,0,0,0,2.39.9c.88.25,1.76.52,2.63.81a16.48,16.48,0,0,1,7.64,4.65,11.46,11.46,0,0,1,2.41,7.58,14.66,14.66,0,0,1-1.06,5.7,11.81,11.81,0,0,1-3.09,4.38,14.39,14.39,0,0,1-5,2.82,20.84,20.84,0,0,1-6.71,1,24.68,24.68,0,0,1-14.4-4.62l4.56-8.58a18.7,18.7,0,0,0,4.73,3.15,11.35,11.35,0,0,0,4.62,1,5.48,5.48,0,0,0,3.88-1.2,3.59,3.59,0,0,0,1.28-2.71,3.67,3.67,0,0,0-.33-1.61,3.47,3.47,0,0,0-1.08-1.25,8.51,8.51,0,0,0-2-1c-.81-.33-1.8-.69-3-1.09-1.37-.44-2.72-.92-4-1.44a12.88,12.88,0,0,1-3.54-2.09,9.87,9.87,0,0,1-2.5-3.29,11.69,11.69,0,0,1-.95-5,14.5,14.5,0,0,1,1-5.51,12.31,12.31,0,0,1,2.82-4.24,12.73,12.73,0,0,1,4.46-2.75,16.9,16.9,0,0,1,5.9-1,25.87,25.87,0,0,1,6.35.84,27.85,27.85,0,0,1,6.36,2.47Z"/><path class="cls-2" d="M429.92,218v31.95H419.27V218h-8.75v-9h28.15v9Z"/><path class="cls-2" d="M481.54,249.91H468.28l-10.16-15.76v15.76H447.47v-41H464a16.29,16.29,0,0,1,6,1,11.29,11.29,0,0,1,6.71,6.77,14,14,0,0,1,.84,4.89,12.05,12.05,0,0,1-2.25,7.58,11.4,11.4,0,0,1-6.66,3.94Zm-23.42-22.66h2A7.86,7.86,0,0,0,465,226a5,5,0,0,0,0-7.5,7.79,7.79,0,0,0-4.84-1.31h-2Z"/><path class="cls-2" d="M513.37,218H500.71v6.84h11.95v9H500.71v7.07h12.66v9H490.06v-41h23.31Z"/></svg>