<svg id="Слой_1" data-name="Слой 1" xmlns="http://www.w3.org/2000/svg" viewBox="0 0 787.26 787.26"><defs><style>.cls-1{font-size:54.34px;font-family:Futura-Bold, Futura;font-weight:700;}.cls-1,.cls-2{fill:#568ac1;}.cls-3{fill:#c3c2c2;}</style></defs><title>logotype 2 ver2</title><text class="cls-1" transform="translate(294.37 310.22)">T<tspan x="33.1" y="0">R</tspan><tspan x="75.32" y="0">U</tspan><tspan x="123.69" y="0">H</tspan><tspan x="173.04" y="0">U</tspan><tspan x="221.41" y="0">I</tspan><tspan x="244.69" y="0">S</tspan></text><path class="cls-2" d="M314.21,278.27v32H303.56v-32h-8.75v-9H323v9Z"/><path class="cls-2" d="M365.83,310.22H352.57l-10.16-15.76v15.76H331.76v-41h16.58a16.23,16.23,0,0,1,6,1A11.29,11.29,0,0,1,361,277a13.81,13.81,0,0,1,.85,4.89,12.05,12.05,0,0,1-2.26,7.58,11.34,11.34,0,0,1-6.65,3.94Zm-23.42-22.66h2a7.77,7.77,0,0,0,4.84-1.31,5,5,0,0,0,0-7.49,7.77,7.77,0,0,0-4.84-1.31h-2Z"/><path class="cls-2" d="M384.64,269.25v22.27c0,1.2,0,2.42.13,3.67a10.41,10.41,0,0,0,.82,3.4,5.63,5.63,0,0,0,2.15,2.47,7.49,7.49,0,0,0,4.13.95,7.38,7.38,0,0,0,4.1-.95,5.87,5.87,0,0,0,2.14-2.47,9.5,9.5,0,0,0,.85-3.4c.09-1.25.13-2.47.13-3.67V269.25h10.6V293q0,9.57-4.38,14t-13.44,4.4q-9.08,0-13.48-4.4T374,293V269.25Z"/><path class="cls-2" d="M433,285.06h15.38V269.25H459v41H448.38v-16.9H433v16.9H422.35v-41H433Z"/><path class="cls-2" d="M482.36,269.25v22.27c0,1.2,0,2.42.13,3.67a10.41,10.41,0,0,0,.82,3.4,5.63,5.63,0,0,0,2.15,2.47,7.49,7.49,0,0,0,4.13.95,7.38,7.38,0,0,0,4.1-.95,5.87,5.87,0,0,0,2.14-2.47,9.5,9.5,0,0,0,.85-3.4c.09-1.25.13-2.47.13-3.67V269.25h10.6V293q0,9.57-4.38,14t-13.44,4.4q-9.07,0-13.48-4.4t-4.4-14V269.25Z"/><path class="cls-2" d="M530.73,269.25v41H520.08v-41Z"/><path class="cls-2" d="M565.85,279.73a13.13,13.13,0,0,0-3.48-2.09A9.29,9.29,0,0,0,559,277a5.45,5.45,0,0,0-3.36,1,3,3,0,0,0-1.31,2.55,2.57,2.57,0,0,0,.65,1.8,5.76,5.76,0,0,0,1.71,1.22,15.86,15.86,0,0,0,2.4.9c.88.25,1.76.52,2.63.81q5.22,1.74,7.63,4.65a11.41,11.41,0,0,1,2.42,7.58,14.66,14.66,0,0,1-1.06,5.7,11.81,11.81,0,0,1-3.09,4.38,14.39,14.39,0,0,1-5,2.82,20.84,20.84,0,0,1-6.71,1,24.68,24.68,0,0,1-14.4-4.62l4.56-8.59a18.49,18.49,0,0,0,4.73,3.16,11.52,11.52,0,0,0,4.62,1,5.48,5.48,0,0,0,3.88-1.2,3.63,3.63,0,0,0,1.28-2.71,3.67,3.67,0,0,0-.33-1.61,3.47,3.47,0,0,0-1.08-1.25,8.9,8.9,0,0,0-2-1.06c-.81-.32-1.8-.68-3-1.08q-2.06-.66-4.05-1.44a12.85,12.85,0,0,1-3.53-2.1,9.73,9.73,0,0,1-2.5-3.28,11.69,11.69,0,0,1-.95-5,14.46,14.46,0,0,1,1-5.51,12.21,12.21,0,0,1,2.82-4.24,12.73,12.73,0,0,1,4.46-2.75,16.85,16.85,0,0,1,5.89-1,25.88,25.88,0,0,1,6.36.84,27.85,27.85,0,0,1,6.36,2.47Z"/><path class="cls-2" d="M699.67,269.36H594.92v40.86H699.67c28.82,0,46.73,18.71,46.73,48.83s-17.91,48.84-46.73,48.84H168.29c-28.83,0-46.73-18.71-46.73-48.84s17.9-48.83,46.73-48.83H268.83V269.36H168.29c-51.57,0-87.59,36.88-87.59,89.69s36,89.7,87.59,89.7H699.67c51.57,0,87.59-36.89,87.59-89.7S751.24,269.36,699.67,269.36Z"/><path class="cls-3" d="M619.19,338.62H125.06a65.27,65.27,0,0,0,0,40.86H619.19c28.83,0,46.73,18.71,46.73,48.84s-17.9,48.83-46.73,48.83H87.6c-28.83,0-46.74-18.71-46.74-48.83,0-28.37,15.89-46.6,41.81-48.64a109,109,0,0,1-.06-40.94C33.71,341.05,0,377.23,0,428.32,0,481.13,36,518,87.6,518H619.19c51.57,0,87.59-36.88,87.59-89.69S670.76,338.62,619.19,338.62Z"/></svg>