<svg id="Слой_1" data-name="Слой 1" xmlns="http://www.w3.org/2000/svg" viewBox="0 0 787.26 251.05"><defs><style>.cls-1,.cls-4{font-size:54.34px;font-family:Futura-Bold, Futura;font-weight:700;}.cls-1,.cls-2{fill:#568ac1;}.cls-3,.cls-4{fill:#c3c2c2;}</style></defs><title>logotype 2 ver</title><text class="cls-1" transform="translate(294.37 42.11)">T<tspan x="33.1" y="0">R</tspan><tspan x="75.32" y="0">U</tspan><tspan x="123.69" y="0">H</tspan><tspan x="173.04" y="0">U</tspan><tspan x="221.41" y="0">I</tspan><tspan x="244.69" y="0">S</tspan></text><path class="cls-2" d="M314.21,10.16v32H303.56V10.16h-8.75v-9H323v9Z"/><path class="cls-2" d="M365.83,42.11H352.57L342.41,26.35V42.11H331.76v-41h16.58a16.23,16.23,0,0,1,6,1A11.24,11.24,0,0,1,361,8.91a13.81,13.81,0,0,1,.85,4.89,12,12,0,0,1-2.26,7.58A11.34,11.34,0,0,1,353,25.32ZM342.41,19.45h2a7.77,7.77,0,0,0,4.84-1.3,4.47,4.47,0,0,0,1.68-3.75,4.47,4.47,0,0,0-1.68-3.75,7.77,7.77,0,0,0-4.84-1.3h-2Z"/><path class="cls-2" d="M384.64,1.14V23.42c0,1.19,0,2.42.13,3.67a10.29,10.29,0,0,0,.82,3.39A5.65,5.65,0,0,0,387.74,33a7.58,7.58,0,0,0,4.13.95A7.47,7.47,0,0,0,396,33a5.89,5.89,0,0,0,2.14-2.48,9.4,9.4,0,0,0,.85-3.39c.09-1.25.13-2.48.13-3.67V1.14h10.6V24.89q0,9.56-4.38,14t-13.44,4.4q-9.08,0-13.48-4.4t-4.4-14V1.14Z"/><path class="cls-2" d="M433,17h15.38V1.14H459v41H448.38V25.21H433v16.9H422.35v-41H433Z"/><path class="cls-2" d="M482.36,1.14V23.42c0,1.19,0,2.42.13,3.67a10.29,10.29,0,0,0,.82,3.39A5.65,5.65,0,0,0,485.46,33a7.58,7.58,0,0,0,4.13.95,7.47,7.47,0,0,0,4.1-.95,5.89,5.89,0,0,0,2.14-2.48,9.4,9.4,0,0,0,.85-3.39c.09-1.25.13-2.48.13-3.67V1.14h10.6V24.89q0,9.56-4.38,14t-13.44,4.4q-9.07,0-13.48-4.4t-4.4-14V1.14Z"/><path class="cls-2" d="M530.73,1.14v41H520.08v-41Z"/><path class="cls-2" d="M565.85,11.63a13.13,13.13,0,0,0-3.48-2.09A9.09,9.09,0,0,0,559,8.86a5.44,5.44,0,0,0-3.36,1,3.07,3.07,0,0,0-1.31,2.56,2.56,2.56,0,0,0,.65,1.79,5.76,5.76,0,0,0,1.71,1.22,14,14,0,0,0,2.4.9c.88.26,1.76.53,2.63.82q5.22,1.74,7.63,4.64a11.43,11.43,0,0,1,2.42,7.58,14.71,14.71,0,0,1-1.06,5.71,11.77,11.77,0,0,1-3.09,4.37,14.25,14.25,0,0,1-5,2.83,20.85,20.85,0,0,1-6.71,1,24.68,24.68,0,0,1-14.4-4.62l4.56-8.58a18.7,18.7,0,0,0,4.73,3.15,11.35,11.35,0,0,0,4.62,1A5.53,5.53,0,0,0,559.3,33a3.66,3.66,0,0,0,1.28-2.72,3.6,3.6,0,0,0-.33-1.6,3.39,3.39,0,0,0-1.08-1.25,8.51,8.51,0,0,0-2-1.06c-.81-.33-1.8-.69-3-1.09q-2.06-.64-4.05-1.44a12.58,12.58,0,0,1-3.53-2.09,9.87,9.87,0,0,1-2.5-3.29,11.68,11.68,0,0,1-.95-5,14.55,14.55,0,0,1,1-5.52A12.31,12.31,0,0,1,547,3.72,12.71,12.71,0,0,1,551.48,1a16.84,16.84,0,0,1,5.89-1,25.88,25.88,0,0,1,6.36.84,28.32,28.32,0,0,1,6.36,2.47Z"/><path class="cls-2" d="M699.67,1.25H594.92V42.11H699.67c28.82,0,46.73,18.71,46.73,48.84s-17.91,48.83-46.73,48.83H168.29c-28.83,0-46.73-18.71-46.73-48.83s17.9-48.84,46.73-48.84H268.83V1.25H168.29C116.72,1.25,80.7,38.14,80.7,91s36,89.69,87.59,89.69H699.67c51.57,0,87.59-36.88,87.59-89.69S751.24,1.25,699.67,1.25Z"/><path class="cls-3" d="M101.16,209.05H87.6c-28.83,0-46.74-18.71-46.74-48.84,0-28.36,15.89-46.6,41.81-48.63a109,109,0,0,1-.06-40.94C33.71,72.94,0,109.12,0,160.21c0,52.81,36,89.7,87.6,89.7h13.56Z"/><path class="cls-3" d="M619,70.52H124.84A60.55,60.55,0,0,0,121.56,91a60.59,60.59,0,0,0,3.28,20.43H619c28.83,0,46.73,18.71,46.73,48.83S647.8,209.05,619,209.05H603.55v40.86H619c51.57,0,87.59-36.89,87.59-89.7S670.54,70.52,619,70.52Z"/><text class="cls-4" transform="translate(123.44 249.91)">M<tspan x="60.3" y="0">A</tspan><tspan x="107.98" y="0">R</tspan><tspan x="150.55" y="0">K</tspan><tspan x="197.68" y="0">E</tspan><tspan x="232.74" y="0">T</tspan><tspan x="265.83" y="0">P</tspan><tspan x="306.76" y="0">L</tspan><tspan x="341.41" y="0">A</tspan><tspan x="387.57" y="0">C</tspan><tspan x="427.88" y="0">E</tspan></text><path class="cls-3" d="M125.89,249.91l7-41h10.54l8.21,21.84,8.15-21.84h10.54l7,41h-10.6l-3.53-23.58-9.67,23.58H149.2L140,226.33l-3.54,23.58Z"/><path class="cls-3" d="M213.13,242.79H197.92l-2.44,7.12H184.12l15.59-41h11.63l15.6,41H215.58Zm-2.82-8.1-4.78-13.63-4.78,13.63Z"/><path class="cls-3" d="M269.78,249.91H256.52l-10.16-15.76v15.76H235.71v-41h16.58a16.23,16.23,0,0,1,6,1,11.29,11.29,0,0,1,6.71,6.77,14,14,0,0,1,.85,4.89,12.05,12.05,0,0,1-2.26,7.58,11.34,11.34,0,0,1-6.66,3.94Zm-23.42-22.66h2a7.84,7.84,0,0,0,4.84-1.3,5,5,0,0,0,0-7.5,7.77,7.77,0,0,0-4.84-1.31h-2Z"/><path class="cls-3" d="M288.94,225.84l13-16.9h13.15l-16.25,19.4,17.77,21.57H302.8l-13.86-17.77v17.77H278.29v-41h10.65Z"/><path class="cls-3" d="M348.73,218H336.06v6.84h12v9h-12v7.07h12.67v9H325.41v-41h23.32Z"/><path class="cls-3" d="M376,218v31.95H365.36V218h-8.74v-9h28.14v9Z"/><path class="cls-3" d="M404.22,249.91H393.57v-41h16.95q6.9,0,10.57,3.58c2.44,2.4,3.67,5.76,3.67,10.11s-1.23,7.72-3.67,10.11-6,3.58-10.57,3.58h-6.3Zm0-22.17h3.53q5.87,0,5.87-5.11c0-3.4-2-5.11-5.87-5.11h-3.53Z"/><path class="cls-3" d="M445.15,208.94v31.95h12.77v9H434.5v-41Z"/><path class="cls-3" d="M494.25,242.79H479l-2.44,7.12H465.23l15.6-41h11.62l15.6,41H496.69Zm-2.83-8.1-4.78-13.63-4.78,13.63Z"/><path class="cls-3" d="M544.81,222.63a11.36,11.36,0,0,0-9.13-4.51,11.19,11.19,0,0,0-4.43.87,10.6,10.6,0,0,0-5.81,5.92,11.72,11.72,0,0,0-.84,4.46,11.87,11.87,0,0,0,.84,4.51,10.88,10.88,0,0,0,10.19,6.85,12.34,12.34,0,0,0,9.18-4.35V249l-1.09.38a31.26,31.26,0,0,1-4.56,1.28,22.28,22.28,0,0,1-4.19.41,21.26,21.26,0,0,1-8.12-1.6,21.47,21.47,0,0,1-6.85-4.51,22.45,22.45,0,0,1-4.75-6.9,22.18,22.18,0,0,1,0-17.39A21.62,21.62,0,0,1,535,207.8a22.78,22.78,0,0,1,4.81.51,29.44,29.44,0,0,1,5,1.61Z"/><path class="cls-3" d="M578.93,218H566.27v6.84h12v9h-12v7.07h12.66v9H555.62v-41h23.31Z"/></svg>